<?xml version="1.0" standalone="no"?>
<!DOCTYPE svg PUBLIC "-//W3C//DTD SVG 20010904//EN"
 "http://www.w3.org/TR/2001/REC-SVG-20010904/DTD/svg10.dtd">
<svg version="1.0" xmlns="http://www.w3.org/2000/svg"
 width="1188.000000pt" height="1188.000000pt" viewBox="0 0 1188.000000 1188.000000"
 preserveAspectRatio="xMidYMid meet">
<metadata>
Created by potrace 1.14, written by Peter Selinger 2001-2017
</metadata>
<g transform="translate(0.000000,1188.000000) scale(0.100000,-0.100000)"
fill="#000000" stroke="none">
<path d="M385 7880 c-2 -4 -4 -964 -4 -2134 l0 -2127 772 4 c425 2 786 7 802
10 17 2 50 8 75 12 25 3 77 13 115 22 39 8 79 16 90 19 38 7 170 52 250 84 67
27 142 64 250 124 45 25 163 108 215 150 30 26 58 46 62 46 5 0 8 7 8 15 0 8
4 15 8 15 13 0 132 124 188 196 88 113 244 381 244 420 0 8 5 14 10 14 6 0 10
11 10 25 0 14 4 25 10 25 5 0 9 3 8 8 -1 4 6 32 17 62 23 66 22 63 37 123 7
26 16 47 21 47 4 0 6 3 4 8 -3 4 1 36 9 72 17 81 21 104 29 160 3 25 8 56 10
70 20 102 20 712 1 795 -3 11 -8 49 -12 85 -3 36 -9 69 -12 75 -4 5 -7 22 -8
37 -3 38 -64 257 -81 291 -7 15 -11 27 -9 27 5 0 -46 121 -64 152 -5 10 -10
24 -10 32 0 8 -3 16 -7 18 -5 2 -21 28 -37 58 -25 50 -152 248 -165 260 -3 3
-22 25 -43 50 -58 74 -189 200 -262 255 -14 11 -33 26 -41 33 -7 6 -18 12 -23
12 -6 0 -12 4 -14 9 -5 14 -152 102 -248 149 -139 67 -343 136 -470 157 -19 3
-42 8 -50 10 -14 4 -62 10 -165 22 -63 7 -1516 10 -1520 3z m1465 -715 c30 -4
62 -8 70 -9 117 -16 290 -86 394 -160 141 -101 230 -222 326 -441 15 -33 50
-148 56 -180 2 -16 7 -39 11 -50 3 -11 7 -31 9 -45 1 -14 5 -36 8 -50 29 -138
29 -811 0 -945 -4 -20 -10 -53 -20 -115 -3 -19 -10 -43 -15 -52 -5 -10 -8 -18
-5 -18 14 0 -113 -311 -135 -330 -3 -3 -20 -26 -38 -52 -49 -73 -138 -165
-207 -214 -34 -24 -66 -44 -72 -44 -6 0 -12 -4 -14 -8 -11 -26 -204 -90 -338
-112 -70 -12 -561 -21 -602 -12 -17 4 -18 80 -18 1422 0 936 3 1419 10 1422
20 6 526 1 580 -7z"/>
<path d="M4024 7879 c-5 -8 -8 -268 -3 -273 2 -3 2 -64 -1 -138 -3 -73 -4
-169 -2 -213 l3 -81 642 0 642 0 2 -1770 c1 -973 2 -1772 3 -1776 0 -5 198 -8
439 -8 l439 0 0 1768 c0 972 1 1772 1 1777 1 7 224 10 651 9 357 0 651 2 651
5 4 20 3 694 -1 700 -6 9 -3460 9 -3466 0z"/>
<path d="M8003 7876 c-7 -10 -11 -4222 -5 -4243 3 -10 100 -13 441 -13 l438 0
-1 906 c-1 498 1 909 4 914 3 4 389 8 858 8 l852 0 0 -914 0 -914 440 0 440 0
-2 2133 -3 2132 -435 0 -435 0 -3 -865 -2 -865 -851 1 c-593 0 -853 4 -857 11
-4 6 -7 395 -6 865 l0 854 -433 0 c-270 0 -437 -4 -440 -10z"/>
</g>
</svg>
