<svg xmlns="http://www.w3.org/2000/svg" xmlns:xlink="http://www.w3.org/1999/xlink" width="248.397" height="212.811" viewBox="0 0 248.397 212.811">
  <defs>
    <filter id="Path_13" x="80.219" y="0" width="168.178" height="144.988" filterUnits="userSpaceOnUse">
      <feOffset dy="3" input="SourceAlpha"/>
      <feGaussianBlur stdDeviation="3" result="blur"/>
      <feFlood flood-opacity="0.161"/>
      <feComposite operator="in" in2="blur"/>
      <feComposite in="SourceGraphic"/>
    </filter>
    <filter id="Path_15" x="0" y="0" width="168.178" height="144.988" filterUnits="userSpaceOnUse">
      <feOffset dy="3" input="SourceAlpha"/>
      <feGaussianBlur stdDeviation="3" result="blur-2"/>
      <feFlood flood-opacity="0.161"/>
      <feComposite operator="in" in2="blur-2"/>
      <feComposite in="SourceGraphic"/>
    </filter>
    <filter id="Path_14" x="32.965" y="61.139" width="180.586" height="151.672" filterUnits="userSpaceOnUse">
      <feOffset dy="3" input="SourceAlpha"/>
      <feGaussianBlur stdDeviation="3" result="blur-3"/>
      <feFlood flood-opacity="0.161"/>
      <feComposite operator="in" in2="blur-3"/>
      <feComposite in="SourceGraphic"/>
    </filter>
  </defs>
  <g id="Group_10" data-name="Group 10" transform="translate(-1461.71 -670.175)">
    <g transform="matrix(1, 0, 0, 1, 1461.71, 670.17)" filter="url(#Path_13)">
      <path id="Path_13-2" data-name="Path 13" d="M1.321,3.636l76.01-38.729.494,90.82L1.778,94.475Z" transform="matrix(0.45, -0.89, 0.89, 0.45, 119.89, 91.27)" fill="#87c9bf"/>
    </g>
    <g transform="matrix(1, 0, 0, 1, 1461.71, 670.17)" filter="url(#Path_15)">
      <path id="Path_15-2" data-name="Path 15" d="M0,90.839l76.01,38.729.494-90.82L.457,0Z" transform="matrix(-0.45, -0.89, 0.89, -0.45, 43.73, 132.99)" fill="#83f1e0"/>
    </g>
    <g transform="matrix(1, 0, 0, 1, 1461.71, 670.17)" filter="url(#Path_14)">
      <path id="Path_14-2" data-name="Path 14" d="M5.313-88.077,77.6-35.032l.675,90.17L1.223,3.883Z" transform="matrix(0.45, -0.89, 0.89, 0.45, 119.89, 176.87)" fill="#bffaf1"/>
    </g>
    <g id="Group_3" data-name="Group 3" transform="translate(407.977 66.175)">
      <path id="Path_8" data-name="Path 8" d="M-.542.238,14.994,6.972V30.618L-.542,22.6Z" transform="translate(1173 676)" fill="#71afd0"/>
      <path id="Path_12" data-name="Path 12" d="M-.046-.233,4.821-2.784l.039,23.327L-.046,23.555Z" transform="translate(1188 683)" fill="#83cbf1"/>
    </g>
    <path id="Path_16" data-name="Path 16" d="M0,10.193,34-7.535,49.008-1.411,14.474,17.417Z" transform="translate(1551 748.175)" fill="#ffefef"/>
    <g id="Group_4" data-name="Group 4" transform="translate(378 82.175)">
      <path id="Path_8-2" data-name="Path 8" d="M-.952-.087l15.38,7.473v23.15L-.952,22.128Z" transform="translate(1173 676)" fill="#83cbf1"/>
      <path id="Path_12-2" data-name="Path 12" d="M-.6.367,4.031-2.1V21.166L-.6,23.49Z" transform="translate(1188 683)" fill="#8ed8ff"/>
    </g>
    <path id="Path_19" data-name="Path 19" d="M0,10.193,34-7.535,49.008-1.411,14.474,17.417Z" transform="translate(1550.929 748.175)" fill="#ffefef"/>
    <path id="Path_18" data-name="Path 18" d="M-.854,10.276,34-7.535,49.761-1.52,14.474,17.417Z" transform="translate(1550.929 744.175)" fill="#83cbf1"/>
    <path id="Path_20" data-name="Path 20" d="M-.751,10.06V6.22l15.225,6.9v4.3Z" transform="translate(1550.929 748.175)" fill="#80dbcd"/>
    <path id="Path_21" data-name="Path 21" d="M0,10.193V5.9L35.371-12.7v3.748Z" transform="translate(1565.402 755.355)" fill="#93f8e9"/>
  </g>
</svg>
