<svg xmlns="http://www.w3.org/2000/svg" width="512" height="498.64" viewBox="0 0 512 498.64">
  <path id="Union_1" data-name="Union 1" d="M-8246.725,7099.278l-471.643-471.641a13.5,13.5,0,0,1,0-19.092,13.5,13.5,0,0,1,19.092,0l471.641,471.641a13.5,13.5,0,0,1,0,19.092,13.457,13.457,0,0,1-9.545,3.953A13.457,13.457,0,0,1-8246.725,7099.278Zm-74.582-53.368h0ZM-8321.3,7045.911Zm-359.7,0a47.706,47.706,0,0,1-18.683-3.77,47.813,47.813,0,0,1-15.258-10.288,47.849,47.849,0,0,1-10.288-15.256,47.7,47.7,0,0,1-3.772-18.685v-288a47.81,47.81,0,0,1,7.814-26.258,48.074,48.074,0,0,1,20.218-17.4l58.022,58.022a56.213,56.213,0,0,0-21.725,20.242,55.751,55.751,0,0,0-6.145,13.861,55.992,55.992,0,0,0-2.185,15.539,55.63,55.63,0,0,0,4.4,21.8,55.821,55.821,0,0,0,5.163,9.512,56.38,56.38,0,0,0,6.837,8.288,56.166,56.166,0,0,0,8.29,6.837,55.839,55.839,0,0,0,9.512,5.164,55.63,55.63,0,0,0,21.795,4.4,56.058,56.058,0,0,0,15.541-2.185,55.733,55.733,0,0,0,13.858-6.143,56.238,56.238,0,0,0,20.244-21.727l82.206,82.208L-8521,6917.911l-55.515-55.515a11.923,11.923,0,0,0-8.486-3.516,11.923,11.923,0,0,0-8.486,3.516L-8665,6933.912v48h279.694l64,64Zm376.306-64H-8281v-112l-87.514-87.514a11.92,11.92,0,0,0-8.487-3.514,11.924,11.924,0,0,0-8.486,3.514l-59.359,59.361-179.847-179.847H-8265a47.683,47.683,0,0,1,18.685,3.772,47.849,47.849,0,0,1,15.259,10.288,47.873,47.873,0,0,1,10.287,15.256,47.733,47.733,0,0,1,3.771,18.685v288a47.8,47.8,0,0,1-7.812,26.258,48.067,48.067,0,0,1-20.218,17.4Z" transform="translate(8729.001 -6604.591)" fill="#585858"/>
</svg>
