<svg xmlns="http://www.w3.org/2000/svg" width="248" height="248" viewBox="0 0 248 248">
  <g id="Group_6" data-name="Group 6" transform="translate(-836 -201)">
    <path id="Path_3" data-name="Path 3" d="M124,0A124,124,0,1,1,0,124,124,124,0,0,1,124,0Z" transform="translate(836 201)" fill="#121212"/>
    <path id="raspberry-pi-brands" d="M47.287,29.433l-.47-.826c.013-5.9-2.72-8.3-5.911-10.131.966-.254,1.958-.458,2.237-1.678,1.665-.419,2.008-1.195,2.174-2.008.432-.292,1.881-1.106,1.729-2.5a2.057,2.057,0,0,0,1.03-2.3c.877-.953,1.106-1.742.737-2.466a1.84,1.84,0,0,0,.14-2.657c.788-1.424.089-2.949-2.11-2.695-.877-1.284-2.784-.992-3.076-.992-.331-.407-.763-.763-2.1-.6A2.561,2.561,0,0,0,38.834.31c-1.182-.928-1.97-.178-2.873.1-1.436-.458-1.767.165-2.466.432-1.564-.331-2.047.381-2.8,1.131l-.877-.013c-2.364,1.373-3.534,4.169-3.953,5.606-.419-1.436-1.589-4.233-3.953-5.606l-.877.013c-.75-.75-1.233-1.462-2.8-1.131-.712-.254-1.03-.89-2.466-.432a5.82,5.82,0,0,0-1.767-.547A1.885,1.885,0,0,0,12.9.31a2.538,2.538,0,0,0-2.835.267c-1.335-.165-1.78.178-2.1.6-.292,0-2.2-.292-3.076.992-2.2-.254-2.886,1.271-2.1,2.695a1.842,1.842,0,0,0,.14,2.657c-.369.725-.14,1.513.737,2.466a2.091,2.091,0,0,0,1.03,2.3c-.153,1.4,1.3,2.212,1.729,2.5.165.814.508,1.576,2.174,2.008.28,1.208,1.271,1.424,2.237,1.678-3.191,1.831-5.924,4.233-5.911,10.131l-.47.826A9.9,9.9,0,0,0,2.656,44.394a27.687,27.687,0,0,0,1.4,4.5,11.007,11.007,0,0,0,6.941,8.746,23.46,23.46,0,0,0,6.636,3.712,11.134,11.134,0,0,0,8.174,3.61h.127a11.069,11.069,0,0,0,8.161-3.61,23.285,23.285,0,0,0,6.636-3.712,10.985,10.985,0,0,0,6.941-8.746,27.687,27.687,0,0,0,1.4-4.5,9.892,9.892,0,0,0-1.78-14.962Zm-2.822-1.017c-.191,2.377-12.572-8.275-10.436-8.631C39.838,18.831,44.656,22.225,44.465,28.416ZM39,40.25c-3.114,2.008-7.6.712-10.017-2.9s-1.856-8.161,1.258-10.169,7.6-.712,10.017,2.9S42.113,38.242,39,40.25ZM30.368,3.6a1.77,1.77,0,0,0,.369.966,19.157,19.157,0,0,1,2.136-2.2c0,.419-.216.864.318,1.195a6.221,6.221,0,0,1,1.97-1.691c-.407.712-.076.928.153,1.22A7.3,7.3,0,0,1,37.779,1.53c-.331.394-.788.788-.305,1.246A7.19,7.19,0,0,1,40.41,1.644c-.356.394-1.106.8-.648,1.195a12.123,12.123,0,0,1,2.809-.686c-.5.407-.9.8-.5,1.119a6.17,6.17,0,0,1,3.356-.331l-.763.775a22.76,22.76,0,0,0,3.038.1,6.067,6.067,0,0,0-1.182,2.314c.127.127.737.051,1.322,0-.6,1.258-1.627,1.564-1.869,2.11a1.508,1.508,0,0,0,1.424.013,9.477,9.477,0,0,1-2.034,2.2c.178.127.5.2,1.233.114a11.418,11.418,0,0,1-2.39,1.907c.165.191.737.191,1.271.2a12.239,12.239,0,0,1-2.975,1.805,1.84,1.84,0,0,0,1.271.267,10.125,10.125,0,0,1-3.1,1.271,1.1,1.1,0,0,0,.9.521c-1.208.674-2.949.369-3.432.712a1.425,1.425,0,0,0,.852.737c-1.958.114-7.284-.076-8.314-4.106,2-2.2,5.644-4.767,11.911-7.958a40.921,40.921,0,0,0-12.966,6.8c-4.36-2.021-1.373-7.106.737-9.127ZM25.995,18.17c3.076-.038,6.877,2.263,6.864,4.411C32.846,24.488,30.19,26.026,26.02,26c-4.081-.051-6.826-1.932-6.814-3.788,0-1.513,3.331-4.131,6.788-4.042ZM10.359,16.543a1.135,1.135,0,0,0,.9-.521,9.82,9.82,0,0,1-3.1-1.271,1.774,1.774,0,0,0,1.271-.267,12.239,12.239,0,0,1-2.975-1.805c.534-.013,1.106,0,1.271-.2a11.418,11.418,0,0,1-2.39-1.907c.737.089,1.055.013,1.233-.114a9.209,9.209,0,0,1-2.034-2.2,1.547,1.547,0,0,0,1.424-.013c-.242-.534-1.271-.852-1.869-2.11.585.051,1.195.127,1.322,0A6.151,6.151,0,0,0,4.232,3.818a20.6,20.6,0,0,0,3.038-.1l-.763-.775a6.17,6.17,0,0,1,3.356.331c.407-.318-.013-.712-.5-1.119a12.985,12.985,0,0,1,2.809.686c.445-.394-.292-.8-.648-1.195a7.19,7.19,0,0,1,2.936,1.131c.483-.458.025-.852-.305-1.246a7.108,7.108,0,0,1,2.466,1.564c.216-.292.559-.508.153-1.22a6.221,6.221,0,0,1,1.97,1.691c.521-.331.318-.788.318-1.195a19.157,19.157,0,0,1,2.136,2.2,1.879,1.879,0,0,0,.369-.966c2.11,2.021,5.1,7.106.763,9.127a40.921,40.921,0,0,0-12.966-6.8c6.267,3.178,9.915,5.758,11.911,7.958-1.017,4.042-6.356,4.22-8.314,4.106a1.466,1.466,0,0,0,.852-.737c-.508-.356-2.237-.051-3.458-.712ZM18,19.606c2.136.356-10.246,11-10.436,8.631C7.372,22.047,12.2,18.64,18,19.606ZM4.855,43.352c-3.013-2.39-3.979-9.369,1.6-12.5,3.369-.89,1.144,13.7-1.6,12.5ZM16.423,55.835c-1.691,1-5.822.6-8.746-3.547-1.97-3.483-1.716-7.017-.331-8.059,2.072-1.246,5.275.432,7.742,3.254C17.236,50.026,18.215,54.513,16.423,55.835ZM13.067,40.619c-3.114-2.008-3.674-6.559-1.258-10.169s6.9-4.907,10.017-2.9,3.674,6.559,1.258,10.169-6.915,4.907-10.017,2.9ZM26.058,62.928c-3.737.153-7.4-3.013-7.347-4.106-.051-1.614,4.551-2.873,7.538-2.8,3.013-.127,7.068.953,7.08,2.4.064,1.4-3.661,4.564-7.271,4.5Zm7.487-15.877c.025,3.775-3.331,6.839-7.475,6.864s-7.525-3.025-7.551-6.788v-.076c-.025-3.775,3.331-6.839,7.475-6.864s7.525,3.025,7.551,6.788Zm10.449,5.428c-3.216,4.4-7.576,4.564-9.191,3.343-1.691-1.576-.407-6.47,1.919-9.153,2.657-2.962,5.5-4.894,7.487-3.381,1.335,1.309,2.123,6.242-.216,9.191Zm2.911-9.305c-2.733,1.195-4.958-13.386-1.6-12.5C50.885,33.818,49.919,40.8,46.906,43.174Z" transform="translate(975.001 350.14)" fill="#791b8e"/>
    <path id="microchip-solid" d="M43.958,5.072V49.03A5.072,5.072,0,0,1,38.886,54.1H15.216a5.072,5.072,0,0,1-5.072-5.072V5.072A5.072,5.072,0,0,1,15.216,0h23.67A5.072,5.072,0,0,1,43.958,5.072ZM54.1,11.2v1.268a.634.634,0,0,1-.634.634h-1.9v.634a.634.634,0,0,1-.634.634H46.494V9.3h4.438a.634.634,0,0,1,.634.634v.634h1.9a.634.634,0,0,1,.634.634Zm0,10.144v1.268a.634.634,0,0,1-.634.634h-1.9v.634a.634.634,0,0,1-.634.634H46.494V19.443h4.438a.634.634,0,0,1,.634.634v.634h1.9A.634.634,0,0,1,54.1,21.345Zm0,10.144v1.268a.634.634,0,0,1-.634.634h-1.9v.634a.634.634,0,0,1-.634.634H46.494V29.587h4.438a.634.634,0,0,1,.634.634v.634h1.9A.634.634,0,0,1,54.1,31.489Zm0,10.144V42.9a.634.634,0,0,1-.634.634h-1.9v.634a.634.634,0,0,1-.634.634H46.494V39.732h4.438a.634.634,0,0,1,.634.634V41h1.9a.634.634,0,0,1,.634.634ZM3.17,39.732H7.608V44.8H3.17a.634.634,0,0,1-.634-.634v-.634H.634A.634.634,0,0,1,0,42.9V41.634A.634.634,0,0,1,.634,41h1.9v-.634a.634.634,0,0,1,.634-.634Zm0-10.144H7.608v5.072H3.17a.634.634,0,0,1-.634-.634v-.634H.634A.634.634,0,0,1,0,32.757V31.489a.634.634,0,0,1,.634-.634h1.9v-.634a.634.634,0,0,1,.634-.634Zm0-10.144H7.608v5.072H3.17a.634.634,0,0,1-.634-.634v-.634H.634A.634.634,0,0,1,0,22.613V21.345a.634.634,0,0,1,.634-.634h1.9v-.634a.634.634,0,0,1,.634-.634ZM3.17,9.3H7.608v5.072H3.17a.634.634,0,0,1-.634-.634V13.1H.634A.634.634,0,0,1,0,12.469V11.2a.634.634,0,0,1,.634-.634h1.9V9.933A.634.634,0,0,1,3.17,9.3Z" transform="translate(863 292)" fill="#791b8e"/>
    <path id="laptop-code-solid" d="M21.917,22.486a1.375,1.375,0,0,0,1.945,0l.972-.972a1.375,1.375,0,0,0,0-1.945L21.764,16.5l3.069-3.07a1.375,1.375,0,0,0,0-1.945l-.972-.972a1.375,1.375,0,0,0-1.945,0L16.9,15.527a1.375,1.375,0,0,0,0,1.945Zm8.251-.971.972.972a1.375,1.375,0,0,0,1.945,0L38.1,17.473a1.375,1.375,0,0,0,0-1.945l-5.014-5.014a1.375,1.375,0,0,0-1.945,0l-.972.972a1.375,1.375,0,0,0,0,1.945L33.236,16.5l-3.069,3.07a1.375,1.375,0,0,0,0,1.945ZM53.625,35.75H32.789a2.709,2.709,0,0,1-2.814,2.75H24.75a2.918,2.918,0,0,1-2.816-2.75H1.375A1.379,1.379,0,0,0,0,37.125V38.5A5.516,5.516,0,0,0,5.5,44h44A5.516,5.516,0,0,0,55,38.5V37.125A1.379,1.379,0,0,0,53.625,35.75ZM49.5,4.125A4.137,4.137,0,0,0,45.375,0H9.625A4.137,4.137,0,0,0,5.5,4.125V33h44ZM44,27.5H11V5.5H44Z" transform="translate(893 360)" fill="#791b8e"/>
    <path id="server-solid" d="M43.923,43.713H2.928A2.928,2.928,0,0,1,0,40.785V34.928A2.928,2.928,0,0,1,2.928,32H43.923a2.928,2.928,0,0,1,2.928,2.928v5.856A2.928,2.928,0,0,1,43.923,43.713ZM39.531,35.66a2.2,2.2,0,1,0,2.2,2.2A2.2,2.2,0,0,0,39.531,35.66Zm-5.856,0a2.2,2.2,0,1,0,2.2,2.2A2.2,2.2,0,0,0,33.674,35.66ZM43.923,58.354H2.928A2.928,2.928,0,0,1,0,55.426V49.569a2.928,2.928,0,0,1,2.928-2.928H43.923a2.928,2.928,0,0,1,2.928,2.928v5.856A2.928,2.928,0,0,1,43.923,58.354ZM39.531,50.3a2.2,2.2,0,1,0,2.2,2.2A2.2,2.2,0,0,0,39.531,50.3Zm-5.856,0a2.2,2.2,0,1,0,2.2,2.2A2.2,2.2,0,0,0,33.674,50.3ZM43.923,72.995H2.928A2.928,2.928,0,0,1,0,70.067V64.21a2.928,2.928,0,0,1,2.928-2.928H43.923a2.928,2.928,0,0,1,2.928,2.928v5.856A2.928,2.928,0,0,1,43.923,72.995Zm-4.392-8.053a2.2,2.2,0,1,0,2.2,2.2A2.2,2.2,0,0,0,39.531,64.942Zm-5.856,0a2.2,2.2,0,1,0,2.2,2.2A2.2,2.2,0,0,0,33.674,64.942Z" transform="translate(937 191)" fill="#791b8e"/>
    <path id="python-brands" d="M56.241,53.547c-.985-3.952-2.852-6.931-6.829-6.931H44.284v6.062a8.771,8.771,0,0,1-8.542,8.67H22.084a6.969,6.969,0,0,0-6.829,6.944V81.31c0,3.709,3.223,5.882,6.829,6.944a22.98,22.98,0,0,0,13.658,0c3.44-1,6.829-3.005,6.829-6.944V76.1H28.926V74.366H49.412c3.977,0,5.448-2.775,6.829-6.931,1.432-4.284,1.368-8.4,0-13.888ZM36.6,79.57a2.6,2.6,0,1,1-2.57,2.6A2.584,2.584,0,0,1,36.6,79.57ZM21.458,59.634H35.115a6.885,6.885,0,0,0,6.829-6.944V39.659c0-3.709-3.12-6.484-6.829-7.11a42.153,42.153,0,0,0-13.658.013c-5.78,1.023-6.829,3.159-6.829,7.11v5.2H28.3v1.739H9.5A8.537,8.537,0,0,0,.958,53.547a25.613,25.613,0,0,0,0,13.888c.972,4.041,3.287,6.931,7.264,6.931h4.693V68.125A8.683,8.683,0,0,1,21.458,59.634ZM20.6,41.4a2.6,2.6,0,1,1,2.57-2.6A2.584,2.584,0,0,1,20.6,41.4Z" transform="translate(1009.001 251.001)" fill="#791b8e"/>
    <g id="Group_5" data-name="Group 5">
      <g id="Group_3" data-name="Group 3" transform="translate(945 292)">
        <path id="Subtraction_1" data-name="Subtraction 1" d="M17.069,17H12.931L0,0H30L17.069,17Z" transform="translate(0 5)" fill="#791b8e"/>
        <rect id="Rectangle_7" data-name="Rectangle 7" width="30" height="6" fill="#791b8e"/>
      </g>
      <path id="skating-solid" d="M24.818,4.691a2.692,2.692,0,0,0,5.384,0C30.2,3.2,24.818,3.2,24.818,4.691ZM14.83,17.522,9.575,22.777a1.795,1.795,0,0,0,1.267,3.062,1.77,1.77,0,0,0,1.267-.527l5.154-5.154L15.57,18.465a5.274,5.274,0,0,1-.74-.942Zm-2.574-6.55h5.917l-1.127.965a3.586,3.586,0,0,0-.2,5.261l4.386,4.386v4.644a1.795,1.795,0,0,0,3.589,0V21.213a2.692,2.692,0,0,0-.791-1.9L20.606,15.89a.913.913,0,0,0,.1-.062l4.616-4.616a2.243,2.243,0,0,0-1.587-3.83H12.256a1.795,1.795,0,1,0,0,3.589Z" transform="translate(936.833 322.199)" fill="#791b8e"/>
      <path id="Path_2" data-name="Path 2" d="M3131.243,1515c10.333,9.04,1.667-2.737,9.222,2.263s-6.333,1.667-4.333,4.111-.333,2.444,0,2.889" transform="translate(-2171.581 -1199.183)" fill="none" stroke="#791b8e" stroke-width="1"/>
    </g>
  </g>
</svg>
